<svg width="139" height="42" viewBox="0 0 139 42" fill="none" xmlns="http://www.w3.org/2000/svg">
<path d="M44.7549 10.4035H53.8764C53.663 10.0301 53.3963 9.67449 53.0941 9.37222C52.614 8.89214 52.0272 8.50096 51.3871 8.23425C50.0713 7.68304 48.5777 7.68304 47.2619 8.23425C46.6218 8.50096 46.0529 8.89214 45.555 9.37222C45.2527 9.67449 44.9682 10.0301 44.7549 10.4035ZM44.0081 12.8217C44.0081 12.9284 43.9903 13.0351 43.9903 13.1418C43.9903 13.853 44.1325 14.5464 44.3992 15.2043C44.9327 16.4845 45.9639 17.5158 47.2442 18.0493C48.5599 18.6005 50.0535 18.6005 51.3693 18.0493C52.0094 17.7825 52.5784 17.3914 53.0763 16.9113C53.4319 16.5557 53.7164 16.1645 53.9653 15.72L54.0364 15.5777H56.6502L56.4368 16.1467C56.0635 17.0713 55.4945 17.907 54.801 18.6005C54.0898 19.3117 53.2541 19.8629 52.3473 20.2541C50.4269 21.0542 48.2577 21.0542 46.3196 20.2541C44.4704 19.4717 42.9946 17.9959 42.2122 16.1467C41.4121 14.2264 41.4121 12.0571 42.2122 10.119C42.9946 8.26981 44.4704 6.794 46.3196 5.99386C48.2399 5.19373 50.4092 5.19373 52.3473 5.99386C54.1965 6.77622 55.6723 8.25203 56.4546 10.119C56.7925 10.8836 56.9881 11.7015 57.0414 12.5372L57.0592 12.8039H44.0081V12.8217ZM35.6511 6.11833V0.677402H38.0693V6.11833H41.6254V8.53652H38.0693V20.2363H35.6511V8.51874H34.2642V6.11833H35.6511ZM32.8061 2.06431C32.7884 2.82888 32.166 3.41565 31.4015 3.41565C30.6369 3.41565 30.0501 2.77554 30.0501 2.01096C30.0501 1.24639 30.6902 0.659621 31.4548 0.659621C31.8104 0.659621 32.1483 0.801868 32.3972 1.06858C32.6639 1.33529 32.8061 1.69091 32.8061 2.06431ZM30.1746 6.11833H32.5928V20.2185H30.1746V6.11833ZM25.6405 13.8352V6.11833H28.0587V13.853C28.0587 14.7065 27.8986 15.5422 27.5608 16.3245C27.2407 17.0713 26.7784 17.7648 26.2095 18.3515C25.6227 18.9383 24.947 19.4006 24.1824 19.7207C22.6 20.3963 20.8219 20.3963 19.2394 19.7207C17.7102 19.0628 16.5011 17.8537 15.8432 16.3245C15.5054 15.5422 15.3276 14.7065 15.3276 13.853L15.292 6.11833H17.7636L17.7991 13.853C17.7991 14.3864 17.9058 14.9021 18.1014 15.3821C18.297 15.8444 18.5815 16.2712 18.9371 16.6268C19.2927 16.9824 19.7195 17.2669 20.1818 17.4625C20.6618 17.6759 21.1775 17.7648 21.6931 17.7648C22.2266 17.7648 22.7422 17.6581 23.2223 17.4625C23.6846 17.2669 24.1113 16.9824 24.4847 16.6268C24.8403 16.2712 25.1248 15.8622 25.3204 15.3821C25.5516 14.8843 25.6583 14.3686 25.6405 13.8352ZM4.03678 9.90564C3.23665 9.55003 2.48985 9.06995 1.81418 8.48318C1.13851 7.86085 0.693991 7.04293 0.533964 6.15389V6.13611V6.11833C0.427279 5.31819 0.551745 4.50028 0.88958 3.75348C1.22742 3.00669 1.7075 2.3488 2.31205 1.81537C3.62783 0.64184 5.33478 0.00173113 7.09508 0.00173113C8.01969 -0.0160497 8.92651 0.161758 9.76221 0.535156C10.4557 0.85521 11.1135 1.29973 11.6825 1.81537C12.1804 2.27767 12.5894 2.8111 12.9094 3.39787C13.1583 3.84239 13.3362 4.32247 13.4428 4.82033L13.4784 5.10482H10.918L10.8468 4.9448C10.5623 4.16244 10.0289 3.52233 9.31769 3.07781C8.64202 2.65107 7.87744 2.41992 7.0773 2.40214C6.54388 2.41992 6.01045 2.50883 5.49481 2.68663C4.97917 2.86444 4.51687 3.13115 4.09013 3.46899C3.69895 3.77126 3.39667 4.16244 3.18331 4.60696C2.98772 5.01592 2.93437 5.496 3.02328 5.94052C3.14774 6.50951 3.50336 6.98959 4.019 7.29186C4.65911 7.68304 5.35256 8.02088 6.08158 8.25203C6.93506 8.5543 7.78854 8.83879 8.6598 9.12329C9.54884 9.40778 10.4201 9.79896 11.2202 10.279C12.0026 10.7413 12.6783 11.3815 13.1939 12.1282C13.7985 12.9995 13.994 14.0664 13.994 15.0976C14.0118 15.9511 13.8162 16.7868 13.4251 17.5514C13.0517 18.2626 12.536 18.885 11.8959 19.365C11.238 19.8629 10.4912 20.2541 9.70886 20.4852C8.87317 20.7342 8.00191 20.8586 7.13065 20.8586C6.22383 20.8586 5.33478 20.6986 4.48131 20.3785C3.64561 20.0763 2.88103 19.614 2.20536 19.045C1.54747 18.4582 0.996265 17.7648 0.605087 16.9646C0.196128 16.1289 -0.0172412 15.2043 0.000539569 14.2619V14.013H2.41873V14.2619C2.41873 14.8309 2.5432 15.3821 2.79213 15.8978C3.04106 16.4134 3.37889 16.8579 3.80563 17.2313C4.25015 17.6225 4.7658 17.9248 5.317 18.1382C5.90377 18.3693 6.50832 18.476 7.13065 18.4404C7.69963 18.4227 8.2864 18.3515 8.8376 18.2093C9.33547 18.0848 9.81555 17.8714 10.2601 17.587C10.6512 17.3202 10.9891 16.9646 11.238 16.5557C11.4869 16.1111 11.6114 15.6133 11.5936 15.0976C11.5936 14.3686 11.4158 13.6752 10.918 13.124C10.4201 12.5728 9.81555 12.146 9.13988 11.8438C8.33974 11.4704 7.52182 11.1681 6.68613 10.9014C5.76152 10.6169 4.89026 10.2968 4.03678 9.90564Z" fill="#089A99"/>
<path d="M93.2255 13.1418C93.2255 13.853 93.3678 14.5465 93.6345 15.2044C94.1679 16.4846 95.1992 17.5159 96.4794 18.0493C97.7952 18.6005 99.2888 18.6005 100.605 18.0493C101.885 17.5159 102.916 16.4846 103.45 15.2044C104.001 13.8886 104.001 12.395 103.45 11.0792C102.916 9.799 101.885 8.76771 100.605 8.23429C99.2888 7.68308 97.7952 7.68308 96.4794 8.23429C95.1992 8.76771 94.1679 9.799 93.6345 11.0792C93.3678 11.7193 93.2255 12.4306 93.2255 13.1418ZM76.2804 13.1596C76.2804 13.8708 76.4227 14.5643 76.6894 15.2221C77.2228 16.5024 78.2541 17.5337 79.5343 18.0671C80.8501 18.6183 82.3437 18.6183 83.6595 18.0671C84.9397 17.5337 85.971 16.5024 86.5044 15.2221C87.0556 13.9064 87.0556 12.4128 86.5044 11.097C85.971 9.81678 84.9397 8.7855 83.6595 8.25207C82.3437 7.70087 80.8501 7.70087 79.5343 8.25207C78.2541 8.7855 77.2228 9.81678 76.6894 11.097C76.4227 11.7549 76.2804 12.4483 76.2804 13.1596ZM109.21 6.11837V0.677444H111.629V6.11837H115.185V8.53656H111.629V20.2363H109.21V8.51878H107.824V6.11837H109.21ZM90.8251 13.1418C90.8251 12.1105 91.0207 11.0792 91.4297 10.1368C92.212 8.28763 93.6878 6.81182 95.5371 6.01169C97.4574 5.21155 99.6266 5.21155 101.565 6.01169C103.414 6.79404 104.89 8.26985 105.672 10.1368C106.472 12.0572 106.472 14.2264 105.672 16.1645C104.89 18.0137 103.414 19.4895 101.565 20.2719C99.6444 21.072 97.4752 21.072 95.5371 20.2719C93.6878 19.4895 92.212 18.0137 91.4297 16.1645C91.0207 15.1866 90.8074 14.1731 90.8251 13.1418ZM76.2804 18.5294V30.727H73.8622V13.1774C73.8622 12.1461 74.0578 11.1148 74.4668 10.1724C75.2491 8.32319 76.725 6.84739 78.5742 6.04725C80.4945 5.24711 82.6637 5.24711 84.6019 6.04725C86.4511 6.82961 87.9269 8.30541 88.727 10.1724C89.5271 12.0927 89.5271 14.262 88.727 16.2001C87.9446 18.0493 86.4688 19.5251 84.6019 20.3075C83.6595 20.7164 82.6282 20.912 81.5969 20.912C80.4411 20.8942 79.3209 20.592 78.3074 20.0585C77.5429 19.6674 76.8494 19.1517 76.2804 18.5294ZM62.6603 9.90569C61.8602 9.55007 61.0956 9.06999 60.4377 8.48322C59.7621 7.86089 59.3175 7.04297 59.1575 6.15393V6.13615V6.11837C59.0508 5.31824 59.1753 4.50032 59.5131 3.75352C59.851 3.00673 60.331 2.34884 60.9356 1.81542C62.2514 0.641882 63.9583 0.00177309 65.7186 0.00177309C66.6432 -0.0160077 67.55 0.1618 68.3857 0.535198C69.0792 0.855252 69.7371 1.29977 70.3061 1.81542C70.8039 2.27772 71.2129 2.81114 71.533 3.39791C71.7819 3.84243 71.9597 4.32251 72.0664 4.82037L72.1019 5.10487H69.5415L69.4704 4.94484C69.1859 4.16248 68.6525 3.52237 67.9412 3.07785C67.2656 2.65111 66.501 2.41996 65.7008 2.40218C65.1496 2.3844 64.6162 2.47331 64.1006 2.65111C63.5849 2.82892 63.1226 3.09563 62.6959 3.43347C62.3047 3.73574 62.0024 4.12692 61.7891 4.57144C61.5935 4.9804 61.5401 5.46048 61.629 5.905C61.7535 6.47399 62.1091 6.95407 62.6248 7.25634C63.2649 7.64752 63.9583 7.98536 64.6873 8.21651C65.5408 8.51878 66.3943 8.80328 67.2656 9.08777C68.1546 9.37226 69.0259 9.76344 69.826 10.2435C70.6083 10.7058 71.284 11.3459 71.7997 12.0927C72.4042 12.964 72.5998 14.0308 72.5998 15.0621C72.6176 15.9156 72.422 16.7513 72.0308 17.5159C71.6574 18.2271 71.1418 18.8494 70.5017 19.3295C69.8438 19.8274 69.097 20.2186 68.3146 20.4497C67.4789 20.6986 66.6077 20.8231 65.7364 20.8231C64.8296 20.8231 63.9405 20.6631 63.0871 20.343C62.2514 20.0408 61.4868 19.5784 60.8111 19.0095C60.1532 18.4227 59.602 17.7292 59.2109 16.9291C58.8019 16.0934 58.5885 15.1688 58.6063 14.2264V13.9775H61.0245V14.2264C61.0245 14.7954 61.149 15.3466 61.3979 15.8623C61.6468 16.3779 61.9847 16.8224 62.4114 17.1958C62.8559 17.587 63.3716 17.8893 63.9228 18.1026C64.5095 18.3338 65.1141 18.4405 65.7364 18.4049C66.3054 18.3871 66.8922 18.316 67.4434 18.1738C67.9412 18.0493 68.4213 17.8359 68.8658 17.5514C69.257 17.2847 69.5948 16.9291 69.8438 16.5201C70.0927 16.0756 70.2172 15.5778 70.1994 15.0621C70.1994 14.3331 70.0216 13.6397 69.5237 13.0885C69.0259 12.5372 68.4213 12.1105 67.7456 11.8082C66.9455 11.4348 66.1276 11.1326 65.2919 10.8658C64.3851 10.6169 63.5138 10.2969 62.6603 9.90569Z" fill="#808080"/>
<g clip-path="url(#clip0_471_6)">
<path d="M120.949 30.583C120.967 30.5699 120.985 30.5581 121.003 30.5473C121.097 30.4868 121.193 30.4564 121.291 30.4564C121.394 30.4564 121.498 30.4997 121.605 30.5863C121.762 30.7162 121.841 30.885 121.841 31.0928V31.1642C121.834 31.2364 121.821 31.3186 121.803 31.411C121.766 31.5985 121.706 31.8278 121.624 32.0993L121.33 33.0214C121.006 34.2249 120.831 35.1837 120.805 35.898V36.0473C120.805 36.4628 120.852 36.781 120.946 37.0019C120.965 37.0501 120.989 37.0923 121.016 37.1285C121.097 37.238 121.212 37.2975 121.362 37.3071H121.4C121.537 37.3071 121.676 37.2693 121.819 37.1934C121.931 37.1329 122.045 37.0497 122.161 36.9434C122.251 36.8569 122.357 36.7378 122.481 36.5863L122.743 36.2291C122.952 35.9434 123.167 35.6058 123.389 35.2162L123.99 34.1642C123.999 34.1511 124.007 34.1382 124.016 34.1251C124.046 34.0169 124.08 33.911 124.118 33.8071C124.387 33.0625 124.755 32.4175 125.224 31.872C125.526 31.5262 125.852 31.2415 126.203 31.0181C126.462 30.8538 126.735 30.7229 127.021 30.6253C127.341 30.5256 127.642 30.4759 127.923 30.4759C128.286 30.4759 128.627 30.556 128.946 30.7162C129.56 31.0278 129.908 31.5495 129.989 32.2811V32.359V32.3753C129.986 32.5017 129.941 32.6046 129.855 32.6837C129.814 32.7249 129.766 32.7563 129.711 32.7778C129.648 32.8017 129.577 32.8136 129.496 32.8136C129.343 32.8136 129.211 32.7681 129.1 32.6772C128.976 32.5776 128.906 32.4456 128.889 32.2811C128.859 31.9781 128.699 31.7746 128.409 31.6707C128.268 31.6188 128.115 31.5928 127.949 31.5928C127.838 31.5928 127.714 31.6058 127.578 31.6317C127.301 31.6914 127.034 31.804 126.778 31.9694C126.494 32.1534 126.224 32.4023 125.966 32.7162C125.565 33.201 125.269 33.7443 125.077 34.346C124.949 34.7442 124.885 35.123 124.885 35.4824C124.885 35.7249 124.915 35.9608 124.975 36.1902C125.006 36.3112 125.047 36.4227 125.096 36.5246C125.282 36.8942 125.598 37.1334 126.043 37.242C126.209 37.2854 126.382 37.3069 126.561 37.3069C126.91 37.3069 127.26 37.2227 127.61 37.0538C127.718 37.0016 127.824 36.9442 127.929 36.8817C128.842 36.3464 129.667 35.4404 130.404 34.1642C130.413 34.1468 130.424 34.1317 130.436 34.1186C130.441 34.0971 130.447 34.0754 130.456 34.0537C130.792 33.0104 131.325 32.1511 132.054 31.4758C132.264 31.2806 132.477 31.114 132.694 30.9758C133.211 30.6468 133.746 30.4823 134.299 30.4823L134.581 30.4953C135.075 30.5342 135.484 30.7377 135.808 31.1056C136.116 31.4508 136.275 31.8599 136.288 32.3329V32.3914V32.4238C136.288 33.0689 136.051 33.6923 135.578 34.294C135.296 34.6559 134.974 34.9416 134.613 35.1511C134.208 35.3827 133.754 35.519 133.25 35.5602L132.931 35.5732C132.398 35.5732 131.863 35.4693 131.325 35.2615L131.319 35.3849L131.312 35.5603C131.312 35.9647 131.382 36.3014 131.52 36.5699C131.601 36.723 131.705 36.8541 131.831 36.9628C132.065 37.1533 132.355 37.268 132.7 37.3068L132.943 37.3134C133.186 37.3134 133.419 37.2765 133.64 37.2029C133.888 37.1264 134.133 37.0171 134.376 36.8751C134.749 36.6573 135.116 36.3619 135.476 35.9888C135.962 35.4908 136.407 34.8871 136.812 34.1771C136.825 34.1597 136.838 34.1424 136.851 34.1251C137.49 32.9607 137.817 31.7008 137.829 30.3459V30.2745C137.829 28.8286 137.452 27.6121 136.697 26.6251C135.938 25.6424 134.849 25.0364 133.429 24.8069C132.977 24.7463 132.478 24.716 131.933 24.716L130.423 24.768C129.421 24.8112 128.413 24.8956 127.398 25.0212C125.987 25.1858 124.278 25.4995 122.269 25.9628L117.198 27.2095C116.157 27.452 115.173 27.6489 114.243 27.8004C114.235 27.8206 114.226 27.8411 114.218 27.8621C114.155 28.0062 114.085 28.1653 114.007 28.3394L113.546 29.3199C112.843 30.8004 111.907 32.5732 110.739 34.6381C110.762 35.3665 110.86 35.9759 111.033 36.466C111.051 36.5186 111.07 36.5695 111.09 36.6186C111.201 36.8698 111.327 37.0581 111.468 37.1837C111.514 37.2227 111.566 37.2529 111.621 37.2745C111.681 37.3004 111.736 37.3136 111.787 37.3136L111.851 37.3069C111.947 37.2917 112.041 37.2603 112.133 37.2128C112.275 37.138 112.414 37.0243 112.548 36.8719L112.939 36.3459L113.047 36.1704C113.222 35.8977 113.412 35.5667 113.616 35.1771L114.166 34.1641C114.184 34.1338 114.205 34.1056 114.23 34.0797C114.529 33.2355 114.996 32.4802 115.631 31.8134C115.938 31.4908 116.254 31.2267 116.578 31.0212C117.15 30.6576 117.749 30.4758 118.375 30.4758H118.419C119.3 30.484 119.942 30.8985 120.344 31.7193C120.364 31.7604 120.383 31.8027 120.402 31.8459L120.683 31.0147L120.76 30.8394C120.812 30.7276 120.875 30.642 120.949 30.583ZM117.476 37.0441C117.838 36.8388 118.184 36.5129 118.516 36.0668C118.784 35.7032 119.049 35.2573 119.309 34.7291C119.428 34.4651 119.526 34.2399 119.603 34.0538L119.852 33.4369C119.929 33.2553 120.006 33.0408 120.083 32.7941L119.993 32.8072C119.916 32.8072 119.837 32.7898 119.756 32.7553C119.611 32.6946 119.511 32.5843 119.456 32.4241C119.311 32.0042 119.051 31.7423 118.675 31.6384C118.573 31.6081 118.454 31.5929 118.317 31.5929C118.074 31.5929 117.814 31.6536 117.537 31.7747C117.381 31.8423 117.231 31.9223 117.086 32.015C116.523 32.3765 116.038 32.9306 115.631 33.6773C115.465 33.9717 115.333 34.2855 115.235 34.6189C115.111 35.0128 115.045 35.3807 115.036 35.7228V35.8136C115.036 36.1741 115.105 36.4697 115.241 36.6999C115.417 36.996 115.705 37.1854 116.105 37.2681C116.241 37.2941 116.377 37.3071 116.514 37.3071C116.846 37.3069 117.167 37.2194 117.476 37.0441ZM123.821 36.6738C123.796 36.7095 123.772 36.7454 123.747 36.781C123.311 37.4162 122.854 37.8697 122.378 38.1415C122.265 38.2073 122.15 38.2627 122.033 38.3069C121.828 38.385 121.628 38.4238 121.432 38.4238C121.249 38.4238 121.059 38.3891 120.863 38.3199C120.466 38.1769 120.174 37.9194 119.987 37.5472C119.82 37.2094 119.727 36.809 119.705 36.3459V36.2225C119.663 36.2888 119.62 36.3537 119.577 36.4173C119.163 37.0284 118.724 37.5046 118.26 37.8459C118.171 37.9093 118.08 37.9677 117.988 38.0212C117.524 38.2897 117.028 38.424 116.501 38.424C116.382 38.424 116.241 38.413 116.079 38.3915C115.218 38.2789 114.606 37.8742 114.244 37.1771C114.167 37.0299 114.105 36.8784 114.058 36.7225C114.023 36.7772 113.989 36.8291 113.956 36.8784C113.915 36.9406 113.874 36.9991 113.834 37.0538C113.474 37.5867 113.096 37.9643 112.702 38.1869C112.421 38.345 112.131 38.424 111.832 38.424H111.781C111.01 38.398 110.436 37.9195 110.061 36.9889C109.946 36.6858 109.852 36.3589 109.78 36.0082C109.742 36.0568 109.704 36.1043 109.665 36.1512C109.28 36.6272 108.871 37.0385 108.437 37.385C108.213 37.5629 107.989 37.7177 107.765 37.8493C107.116 38.2323 106.464 38.424 105.808 38.424C105.663 38.424 105.491 38.4088 105.29 38.3784C104.258 38.2138 103.58 37.6901 103.256 36.8069C103.163 36.5558 103.103 36.2897 103.077 36.0082L103.199 34.9368L102.118 34.5732C102.107 34.6097 102.095 34.6464 102.083 34.6837C102.001 34.9454 101.901 35.2072 101.785 35.4694L101.082 36.7291C100.667 37.3246 100.207 37.7684 99.7038 38.0603C99.6437 38.0947 99.5829 38.1272 99.5215 38.1577C99.1592 38.3351 98.7839 38.424 98.3959 38.424C98.2169 38.424 98.0164 38.4023 97.7948 38.359C97.168 38.2249 96.6734 37.9238 96.311 37.4564C96.1064 37.201 95.955 36.911 95.857 36.5863C95.8485 36.5949 95.84 36.6058 95.8314 36.6188C95.8053 36.6604 95.7797 36.7016 95.7547 36.7421C95.4119 37.2724 95.0877 37.6663 94.7826 37.924C94.6564 38.0289 94.5296 38.1176 94.402 38.1903C94.1249 38.346 93.8445 38.4241 93.561 38.4241C93.4673 38.4241 93.3606 38.4132 93.2413 38.3916C92.5676 38.2617 92.1882 37.7877 92.1029 36.9695C92.0901 36.8527 92.0837 36.7293 92.0837 36.5994C92.0837 36.0582 92.1839 35.4111 92.3843 34.6578L92.7041 33.5084C92.832 33.0625 92.9215 32.6859 92.9727 32.3786C92.9983 32.2184 93.011 32.056 93.011 31.8916V31.8007C93.011 31.6664 92.9983 31.5929 92.9727 31.5799C92.9557 31.5712 92.9385 31.5669 92.9215 31.5669C92.8831 31.5669 92.8212 31.5951 92.736 31.6514L92.7201 31.6643L92.4866 31.8721C92.265 32.0582 92.0113 32.3417 91.7256 32.7228C91.2693 33.3158 90.7663 34.0864 90.2163 35.0345C89.9988 35.4155 89.7772 35.8181 89.5512 36.2424L88.7198 37.8008C88.6558 37.9176 88.5833 38.0303 88.5023 38.1385C88.4125 38.2499 88.3166 38.329 88.2145 38.3755C88.1432 38.408 88.0686 38.4242 87.9907 38.4242C87.9353 38.4242 87.882 38.4156 87.8308 38.3982C87.6262 38.3463 87.4706 38.2077 87.364 37.9827C87.2872 37.8181 87.2297 37.6062 87.1913 37.3464C87.1401 36.9827 87.1145 36.5802 87.1145 36.1385V36.093C87.0722 36.1262 87.0296 36.1576 86.9866 36.1872C86.9153 36.2377 86.8427 36.2842 86.7692 36.3268C86.4774 36.4958 86.1705 36.6017 85.8483 36.645C85.846 36.6645 85.8438 36.6841 85.8419 36.7034C85.7329 37.5555 85.4409 38.3411 84.9657 39.0604C84.4837 39.781 83.8624 40.3666 83.1015 40.8169C82.8936 40.941 82.6751 41.0546 82.4459 41.1578C81.3843 41.6384 80.2353 41.8786 78.9988 41.8786C77.2935 41.8614 75.9099 41.4717 74.8483 40.7098C73.616 39.8265 73 38.6512 73 37.1837V36.9823C73.0426 35.9824 73.3326 35.0342 73.8698 34.1382C74.1984 33.5865 74.6215 33.146 75.1392 32.8168C75.455 32.6166 75.8056 32.4573 76.1913 32.3394C76.7157 32.1836 77.2423 32.1056 77.7709 32.1056C78.3167 32.1056 78.8795 32.2075 79.4593 32.411C80.0391 32.6143 80.6936 32.9651 81.4227 33.4629L83.3221 34.7551C83.7939 35.0681 84.229 35.2911 84.6267 35.4238C84.6738 35.4407 84.7208 35.4559 84.7674 35.4694C84.6779 34.5733 84.3581 33.8071 83.8081 33.1707C83.2581 32.5256 82.5567 32.0538 81.7041 31.7551L80.8855 31.4694C80.135 31.2011 79.5766 30.9369 79.2099 30.6772C78.2208 29.9976 77.6708 29.0646 77.5599 27.8785L77.5407 27.5278C77.5407 26.385 77.9968 25.4282 78.9093 24.6577C79.0683 24.5233 79.2335 24.4021 79.4049 24.2941C80.1078 23.8482 80.9104 23.6253 81.8128 23.6253C82.657 23.6253 83.4138 23.872 84.0831 24.3655C84.7364 24.8482 85.1148 25.5268 85.2183 26.4012C85.222 26.4278 85.2252 26.4549 85.2279 26.4824L85.2471 26.8395C85.2471 27.5019 85.0786 28.069 84.7419 28.5408C84.5032 28.8669 84.2836 29.0801 84.0831 29.1804C83.9942 29.2259 83.9091 29.2486 83.8273 29.2486C83.7718 29.2443 83.7208 29.2378 83.6738 29.2291L83.5843 29.3136L83.4884 29.4077L82.4779 30.3655C82.4454 30.3838 82.4145 30.399 82.3852 30.411C82.2436 30.464 82.1445 30.4293 82.0878 30.3071C82.0196 30.2291 82.026 30.1317 82.107 30.0149L82.1134 30.0084C82.1304 29.9824 82.1538 29.9542 82.1837 29.924L83.2965 28.859C83.2837 28.8028 83.2752 28.7443 83.2709 28.6837C83.2709 28.5366 83.3285 28.4132 83.4436 28.3136C83.9297 27.872 84.1727 27.3633 84.1727 26.7876C84.1727 26.2162 83.9595 25.7356 83.5331 25.346C83.1068 24.9564 82.5248 24.7573 81.7872 24.7486C81.0812 24.7486 80.4714 24.9142 79.9581 25.2454C79.8022 25.3456 79.6551 25.4615 79.5169 25.5928C78.9243 26.1555 78.6279 26.8308 78.6279 27.6188C78.6279 27.9607 78.6972 28.2843 78.8358 28.5895C78.956 28.8532 79.1276 29.1032 79.3506 29.3395C79.8281 29.846 80.5657 30.2443 81.5634 30.5343C81.8356 30.6143 82.0956 30.7053 82.3436 30.8071C82.519 30.879 82.6884 30.9559 82.852 31.0376C83.6369 31.4375 84.2753 31.9623 84.7674 32.6123C85.3205 33.3378 85.6679 34.1388 85.8099 35.0149C85.8361 35.1789 85.8553 35.3455 85.8674 35.5149C85.8925 35.5069 85.9171 35.4984 85.941 35.4889C86.0223 35.459 86.1023 35.4221 86.1808 35.3785C86.5603 35.165 86.9141 34.7863 87.2424 34.2421C87.2468 34.1989 87.251 34.1533 87.2552 34.1058L87.3831 33.0278C87.6645 30.8936 88.0547 29.0364 88.5535 27.4564L88.8605 26.4824C89.0012 26.1015 89.1419 25.7638 89.2826 25.4694C89.6298 24.7391 90.0435 24.2176 90.5233 23.9045C90.5447 23.8914 90.566 23.8784 90.5872 23.8655C90.8387 23.7097 91.0988 23.6317 91.3674 23.6317L91.4953 23.6447C91.8407 23.6794 92.1073 23.831 92.2948 24.0993C92.461 24.3417 92.5442 24.6427 92.5442 25.0019L92.5378 25.2551C92.5164 25.4586 92.4823 25.6642 92.4355 25.872L92.2756 26.4434C91.9856 27.3958 91.4528 28.649 90.6767 30.2032C90.0927 31.398 89.3039 32.8699 88.3105 34.6188L88.2849 35.0473C88.2507 35.4499 88.2337 35.8416 88.2337 36.2227V36.385C88.7198 35.4673 89.1121 34.7573 89.4105 34.2551C89.9519 33.3375 90.4507 32.5799 90.907 31.9824C91.1756 31.6404 91.4016 31.3785 91.5849 31.1967C91.7505 31.0286 91.9168 30.8901 92.0837 30.7811C92.1964 30.7069 92.3095 30.6463 92.4227 30.5993C92.5975 30.5171 92.7788 30.4759 92.9663 30.4759C93.0686 30.4759 93.1667 30.4889 93.2605 30.5149C93.5589 30.5885 93.7827 30.7551 93.932 31.0149C94.0587 31.2294 94.1227 31.4989 94.1238 31.8233V31.833V31.885C94.1238 32.0321 94.1089 32.1837 94.0791 32.3395L93.3564 35.4499C93.318 35.6015 93.2839 35.7638 93.2541 35.9369C93.2071 36.2141 93.1837 36.4542 93.1837 36.6577C93.1837 36.7746 93.1879 36.8591 93.1965 36.911C93.2097 37.0645 93.2767 37.1704 93.398 37.2291C93.4352 37.2462 93.4768 37.2591 93.5227 37.2681L93.7529 37.2551C93.7983 37.2465 93.8378 37.2346 93.8712 37.2194C93.889 37.2129 93.905 37.2054 93.9192 37.1967C94.1153 37.0754 94.3199 36.8763 94.5331 36.5993L94.9872 35.859C95.1493 35.5819 95.307 35.3006 95.4605 35.0149L95.9081 34.2032C95.9891 33.9088 96.0958 33.6123 96.2279 33.3134C96.5775 32.5256 97.0593 31.8741 97.6733 31.3589C97.8151 31.2417 97.9602 31.1367 98.1081 31.044C98.5536 30.7595 99.0248 30.583 99.5215 30.5147L99.7709 30.4758C99.8818 30.4671 99.9628 30.4628 100.014 30.4628C100.402 30.4628 100.784 30.558 101.159 30.7485C101.871 31.1046 102.269 31.7215 102.351 32.5991C102.362 32.7137 102.367 32.8328 102.367 32.9563L102.355 33.1902C102.35 33.2767 102.344 33.3633 102.335 33.4499L102.563 33.5278L103.32 33.7908L103.41 33.8201C103.742 32.885 104.246 32.1036 104.919 31.4759C105.128 31.2824 105.341 31.1167 105.556 30.9791C106.077 30.648 106.615 30.4824 107.17 30.4824L107.445 30.4954C107.94 30.5343 108.349 30.7378 108.673 31.1058C108.98 31.451 109.14 31.8601 109.153 32.333V32.3915V32.424C109.153 33.069 108.916 33.6924 108.443 34.2941C108.164 34.6576 107.843 34.9433 107.481 35.1512C107.079 35.3829 106.626 35.5194 106.122 35.5603L105.802 35.5733C105.354 35.5733 104.904 35.4998 104.452 35.3525C104.435 35.3482 104.42 35.344 104.408 35.3395L104.331 35.3136C104.284 35.2962 104.239 35.2789 104.197 35.2616V35.2682C104.191 35.2973 104.187 35.3362 104.184 35.385V35.463V35.5604C104.184 35.9649 104.253 36.3015 104.392 36.5701C104.473 36.7232 104.576 36.8542 104.702 36.9629C104.936 37.1534 105.226 37.2681 105.572 37.3069L105.808 37.3136C106.056 37.3136 106.29 37.2767 106.512 37.203C106.76 37.1265 107.005 37.0172 107.247 36.8753C107.621 36.6575 107.987 36.362 108.347 35.9889C108.795 35.5301 109.221 34.9585 109.626 34.2746V34.0343C109.648 33.2681 109.756 32.2637 109.952 31.0214C110.127 29.9607 110.338 29.0019 110.586 28.1447H110.304C109.102 28.1447 108.117 28.0193 107.35 27.7681C106.484 27.4911 105.715 27.0625 105.041 26.4824C104.295 25.8417 103.785 25.121 103.512 24.3201C103.487 24.2551 103.474 24.1924 103.474 24.1317C103.474 24.0451 103.497 23.9672 103.544 23.898C103.553 23.8807 103.563 23.8655 103.576 23.8525L103.512 23.7064L103.234 23.0701L103.167 22.9175L102.93 22.372C102.925 22.3386 102.921 22.3072 102.921 22.2778C102.917 22.2002 102.93 22.1397 102.959 22.096C102.99 22.0495 103.04 22.0225 103.109 22.0149C103.208 21.9759 103.297 22.0149 103.378 22.1317L103.384 22.1382C103.401 22.1642 103.419 22.1967 103.436 22.2356L104.056 23.6447C104.141 23.649 104.214 23.6664 104.273 23.6967C104.41 23.753 104.51 23.8634 104.574 24.0278L104.58 24.0603C104.691 24.2854 104.759 24.4197 104.785 24.4629C104.998 24.8395 105.28 25.1924 105.629 25.5214C106.699 26.5343 108.183 27.0408 110.08 27.0408H110.125C110.366 27.0408 110.61 27.0354 110.858 27.0246C110.89 27.0241 110.923 27.0229 110.957 27.0214C111.242 26.2508 111.566 25.582 111.929 25.0149C112.146 24.6685 112.366 24.3936 112.587 24.1902C112.698 24.0858 112.81 23.9959 112.923 23.9207C113.105 23.8011 113.29 23.7199 113.476 23.6772C113.591 23.6469 113.704 23.6317 113.815 23.6317C114.135 23.6317 114.402 23.7508 114.615 23.9889C114.853 24.2573 114.973 24.595 114.973 25.0019V25.0278L114.966 25.1642C114.932 25.6058 114.839 26.0798 114.685 26.5863C114.813 26.5646 114.943 26.5408 115.075 26.5149C115.086 26.5127 115.096 26.5106 115.107 26.5084C115.873 26.3541 116.675 26.1788 117.512 25.9824L119.923 25.3785C124.216 24.2919 127.987 23.7097 131.236 23.6317L131.703 23.6253C133.532 23.6253 134.95 23.9262 135.956 24.5278C137.06 25.1772 137.868 26.136 138.38 27.4045C138.567 27.8606 138.707 28.3356 138.799 28.8298C138.886 29.3028 138.93 29.793 138.93 30.3006C138.93 30.5733 138.917 30.8482 138.891 31.1253C138.768 32.4066 138.399 33.6014 137.785 34.7097C137.768 34.7399 137.751 34.7681 137.734 34.7941C137.099 35.8806 136.376 36.7443 135.566 37.385C135.342 37.5636 135.117 37.7194 134.891 37.8525C134.245 38.2336 133.596 38.424 132.944 38.424C132.803 38.424 132.628 38.4088 132.419 38.3784C131.388 38.2138 130.71 37.6901 130.386 36.8069C130.326 36.6511 130.281 36.4888 130.251 36.3199C130.212 36.3658 130.173 36.4111 130.133 36.4563C129.626 37.0293 129.086 37.486 128.512 37.8264C128.311 37.9441 128.107 38.048 127.898 38.1381C127.45 38.3286 127.002 38.4238 126.555 38.4238C126.376 38.4238 126.188 38.4064 125.992 38.3719C125.288 38.2551 124.743 37.9325 124.355 37.4043C124.159 37.1446 124.016 36.8481 123.926 36.5147C123.891 36.5682 123.856 36.6212 123.821 36.6738ZM132.042 34.333C132.334 34.4153 132.628 34.4564 132.924 34.4564L133.193 34.4498C133.515 34.4175 133.804 34.3298 134.06 34.1869C134.386 34.0051 134.658 33.7334 134.875 33.372C135.007 33.1599 135.099 32.9499 135.15 32.7421C135.18 32.6338 135.195 32.5191 135.195 32.398C135.195 32.2811 135.176 32.1707 135.137 32.0668C135.018 31.7638 134.773 31.6058 134.402 31.5928H134.357C134.076 31.5928 133.784 31.6663 133.481 31.8136C133.371 31.8673 133.265 31.9268 133.161 31.9921C132.675 32.3053 132.262 32.7566 131.92 33.346C131.771 33.6102 131.645 33.8786 131.543 34.1512C131.708 34.225 131.875 34.2855 132.042 34.333ZM112.811 26.8688C112.983 26.8484 113.158 26.8256 113.335 26.8006C113.369 26.7968 113.403 26.7925 113.438 26.7876C113.463 26.7227 113.487 26.6577 113.508 26.5928L113.636 26.2097C113.687 26.0408 113.724 25.9089 113.745 25.8136C113.822 25.5451 113.866 25.2789 113.879 25.0149C113.879 24.8763 113.826 24.8071 113.719 24.8071L113.617 24.8201C113.552 24.8377 113.484 24.8734 113.412 24.9272C113.274 25.0298 113.125 25.1998 112.965 25.4369C112.773 25.7227 112.592 26.0473 112.421 26.411C112.34 26.5798 112.261 26.7551 112.184 26.9369C112.39 26.9171 112.599 26.8945 112.811 26.8688ZM104.91 34.333C105.201 34.4153 105.495 34.4564 105.789 34.4564L106.058 34.4498C106.384 34.4193 106.676 34.3316 106.934 34.1869C107.259 34.006 107.53 33.7345 107.746 33.372C107.883 33.1556 107.972 32.9456 108.015 32.7421C108.049 32.6382 108.066 32.5234 108.066 32.398C108.066 32.2811 108.047 32.1707 108.008 32.0668C107.889 31.7638 107.642 31.6058 107.266 31.5928H107.228C106.947 31.5928 106.655 31.6663 106.352 31.8136C106.242 31.8673 106.136 31.9268 106.032 31.9921C105.546 32.3053 105.133 32.7566 104.791 33.346C104.638 33.6102 104.512 33.8786 104.414 34.1512C104.499 34.1902 104.585 34.2247 104.67 34.2551C104.749 34.284 104.829 34.3099 104.91 34.333ZM111.733 28.161C111.386 29.2401 111.123 30.4576 110.943 31.8136L110.94 31.8395L110.911 32.0538C111.594 30.7898 112.142 29.7162 112.555 28.833C112.696 28.5386 112.826 28.2551 112.945 27.9824C112.783 27.9997 112.621 28.0171 112.459 28.0343C112.216 28.056 111.982 28.0754 111.756 28.0928C111.748 28.1159 111.741 28.1386 111.733 28.161ZM99.7134 32.5538C99.7566 32.5699 99.8035 32.5851 99.8541 32.5993L101.14 33.0408L101.267 33.0863V33.0214C101.267 32.2466 100.969 31.7833 100.372 31.6317C100.227 31.5971 100.103 31.5798 100.001 31.5798C99.7974 31.5798 99.6247 31.6328 99.4831 31.7389C99.4111 31.7937 99.3472 31.862 99.2913 31.9434C99.1841 32.2115 99.3248 32.415 99.7134 32.5538ZM103.285 22.8493L103.346 22.9921L103.627 23.6447C103.641 23.6301 103.656 23.6171 103.672 23.6058C103.711 23.5786 103.758 23.5634 103.813 23.5603L103.199 22.1707C103.148 22.1577 103.109 22.1577 103.084 22.1707C103.057 22.1821 103.039 22.206 103.029 22.2421C103.028 22.2458 103.027 22.2501 103.026 22.2551L103.285 22.8493ZM103.263 22.1577L103.781 23.346L103.858 23.3006L103.301 22.1447L103.263 22.1577ZM91.086 24.8654C90.8738 25.0285 90.6544 25.3098 90.4273 25.7095C89.9071 26.6576 89.4317 28.1186 89.0012 30.0927C88.9308 30.4272 88.8456 30.8602 88.7453 31.3914C88.7313 31.471 88.7163 31.5532 88.7006 31.6381C89.4211 30.2962 90.0031 29.1251 90.4465 28.1251L91.0605 26.703C91.2651 26.1446 91.3866 25.6446 91.425 25.203L91.4442 24.9823C91.4442 24.9173 91.4378 24.8589 91.425 24.8069L91.4186 24.781L91.3994 24.7485H91.3291L91.3163 24.7615L91.2779 24.781L91.2267 24.7875H91.214V24.781C91.1716 24.8043 91.129 24.8325 91.086 24.8654ZM83.2773 29.5149C83.2773 29.4153 83.2198 29.4153 83.1047 29.5149C83.0491 29.5668 82.9789 29.6404 82.8936 29.7356C82.8638 29.7573 82.802 29.8158 82.7081 29.911C82.61 30.0149 82.561 30.0776 82.561 30.0993L82.5674 30.1447C82.593 30.1533 82.61 30.1577 82.6186 30.1577C82.6228 30.1577 82.7337 30.0538 82.9512 29.846C83.1686 29.6382 83.2773 29.5278 83.2773 29.5149ZM83.2773 29.1058C83.2773 29.0191 83.0983 29.1382 82.7401 29.4629C82.382 29.7919 82.2029 29.9694 82.2029 29.9954C82.2029 30.0343 82.2243 30.0538 82.2669 30.0538C82.2711 30.0538 82.608 29.7378 83.2773 29.1058ZM82.4843 30.2225C82.4843 30.1878 82.4673 30.1706 82.4331 30.1706C82.3948 30.1706 82.3606 30.1901 82.3308 30.229C82.2626 30.2247 82.2135 30.2333 82.1837 30.255C82.1709 30.2637 82.1645 30.2723 82.1645 30.281C82.1645 30.3069 82.1815 30.3264 82.2157 30.3394H82.3308C82.4331 30.3006 82.4843 30.2616 82.4843 30.2225ZM74.311 38.4043C74.5277 38.9506 74.8987 39.4116 75.4238 39.7875C76.315 40.4325 77.5365 40.755 79.0884 40.755C80.3078 40.755 81.3353 40.5342 82.1709 40.0925C82.2541 40.0484 82.3352 40.0029 82.414 39.9562C83.1295 39.5327 83.6943 38.9938 84.1087 38.3393C84.4541 37.7851 84.6673 37.2051 84.7483 36.5991C84.4669 36.5255 84.2068 36.4368 83.968 36.3328C83.4308 36.1121 82.7635 35.7268 81.9663 35.1771L80.6552 34.2745C80.101 33.9151 79.5958 33.6468 79.1395 33.4693C78.6791 33.2962 78.2272 33.2095 77.7837 33.2095H77.5919C76.8854 33.2475 76.2767 33.4303 75.766 33.7584C75.4614 33.9538 75.1918 34.2017 74.957 34.5019C74.3728 35.2421 74.0808 36.1167 74.0808 37.1253C74.0808 37.5941 74.1576 38.0204 74.311 38.4043ZM97.0273 36.5473C97.1964 36.8775 97.465 37.1004 97.8331 37.2162C98.008 37.268 98.1785 37.2941 98.3448 37.2941C98.6277 37.2941 98.906 37.2172 99.1794 37.0636C99.3551 36.9642 99.5288 36.8333 99.7006 36.6708L99.8924 36.476L100.532 35.5345C100.6 35.4046 100.66 35.2833 100.711 35.1708C100.766 35.0582 100.813 34.9566 100.852 34.8655C100.937 34.6404 101.009 34.4262 101.069 34.2227L98.4791 33.3591C98.1977 33.1859 98.0122 32.9478 97.9227 32.6449C97.8852 32.6888 97.8489 32.7332 97.814 32.7778C97.4469 33.2416 97.174 33.7753 96.9953 34.3785C96.876 34.7812 96.8163 35.1663 96.8163 35.5343C96.8163 35.7032 96.8291 35.8676 96.8547 36.0278C96.8908 36.224 96.9484 36.3971 97.0273 36.5473Z" fill="#0EA5E9"/>
</g>
<defs>
<clipPath id="clip0_471_6">
<rect width="66" height="20" fill="white" transform="translate(73 22)"/>
</clipPath>
</defs>
</svg>
